<mxfile host="app.diagrams.net" modified="2024-05-15T17:24:53.436Z" agent="Mozilla/5.0 (Windows NT 10.0; Win64; x64) AppleWebKit/537.36 (KHTML, like Gecko) Chrome/124.0.0.0 Safari/537.36" etag="nmlk_RYTW3QhhnlpvO3K" version="24.4.0" type="github">
  <diagram name="Page-1" id="4gAsuJwyxFiTD94uo9k4">
    <mxGraphModel dx="1050" dy="569" grid="1" gridSize="10" guides="1" tooltips="1" connect="1" arrows="1" fold="1" page="1" pageScale="1" pageWidth="827" pageHeight="1169" math="0" shadow="0">
      <root>
        <mxCell id="0" />
        <mxCell id="1" parent="0" />
        <mxCell id="TGoPmxPnmZXClMTdgVaO-1" value="" style="whiteSpace=wrap;html=1;aspect=fixed;" vertex="1" parent="1">
          <mxGeometry x="280" y="510" width="80" height="80" as="geometry" />
        </mxCell>
        <mxCell id="pOnptlD20K87jXzJHfgA-29" style="edgeStyle=orthogonalEdgeStyle;rounded=0;orthogonalLoop=1;jettySize=auto;html=1;" edge="1" parent="1" source="pOnptlD20K87jXzJHfgA-24">
          <mxGeometry relative="1" as="geometry">
            <mxPoint x="170" y="245" as="targetPoint" />
            <Array as="points">
              <mxPoint x="310" y="350" />
              <mxPoint x="310" y="350" />
            </Array>
          </mxGeometry>
        </mxCell>
        <mxCell id="pOnptlD20K87jXzJHfgA-24" value="" style="rounded=0;whiteSpace=wrap;html=1;" vertex="1" parent="1">
          <mxGeometry x="30" y="40" width="700" height="420" as="geometry" />
        </mxCell>
      </root>
    </mxGraphModel>
  </diagram>
</mxfile>
